<svg xmlns="http://www.w3.org/2000/svg"  viewBox="0 0 50 50" width="50px" height="50px"><path fill="#99c93c" d="M46.149,13.031c-0.263-1.177-0.515-2.404-0.932-3.538c-0.403-1.098-1.5-1.845-2.61-1.111 c-0.92,0.608-1.246,1.801-1.602,2.777c-0.371,1.016-1.01,1.856-1.781,2.605c-0.412,0.401-0.852,0.77-1.308,1.117 c-0.54-1.511-1.116-3.05-2.01-4.337c-1.175-1.691-2.932-2.942-4.751-3.865c-3.631-1.841-7.883-2.297-11.643-0.568 c-1.735,0.798-3.211,2.074-4.256,3.671c-0.66,1.01-1.192,2.12-1.67,3.251c-0.389,0.705-0.755,1.421-1.09,2.154 c-0.85-0.779-1.644-1.625-2.394-2.474c-0.704-0.797-0.745-1.658-0.789-2.677C9.272,9.036,9.026,7.896,7.911,7.6 C6.735,7.288,5.887,8.32,5.409,9.242c-0.515,0.995-0.926,2.056-1.198,3.144c-0.137,0.547-0.296,1.137-0.144,1.697 c0.155,0.57,0.579,0.974,1.123,1.178c0.809,0.302,1.682,0.13,2.489,0.486c1.372,0.607,2.4,1.718,3.523,2.699 c-0.128,0.37-0.255,0.74-0.372,1.113c-1.198,3.819-2.214,8.036-1.703,12.057c0.493,3.883,2.602,7.002,5.789,9.213 c1.513,1.049,3.186,1.845,4.899,2.508c1.945,0.752,3.974,1.359,6.052,1.588c4.172,0.459,8.174-1.438,11.041-4.39 c2.863-2.949,5.31-7.003,5.071-11.23c-0.125-2.224-0.7-4.426-1.326-6.554c-0.427-1.451-0.922-2.879-1.437-4.301 c1.015-0.783,2.084-1.498,3.213-2.072c0.467-0.238,0.873-0.299,1.391-0.264c0.5,0.034,1,0.05,1.469-0.155 C46.529,15.419,46.393,14.127,46.149,13.031z M7.255,9.442C7.192,9.429,7.23,9.24,7.255,9.442L7.255,9.442z M44.346,14.268 C44.334,14.285,44.329,14.29,44.346,14.268L44.346,14.268z"/><path fill="#fff" d="M33.933,18.627c-0.194-0.187-0.415-0.308-0.657-0.413c-0.754-0.329-1.557-0.581-2.392-0.521 c-0.582,0.042-1.057,0.167-1.587,0.402c-0.69,0.306-1.294,0.882-1.29,1.69c0.002,0.386,0.166,0.787,0.439,1.061 c0.098,0.098,0.223,0.18,0.355,0.252c0.194,0.216,0.421,0.405,0.66,0.546c0.449,0.264,0.915,0.363,1.427,0.41 c0.439,0.04,0.898-0.042,1.326-0.131c0.351-0.073,0.701-0.2,1.016-0.371c0.471-0.256,0.844-0.667,1.051-1.158 C34.532,19.8,34.404,19.082,33.933,18.627z"/><path fill="#fff" d="M21.586,18.864c-0.133-0.225-0.313-0.405-0.538-0.538c-0.772-0.578-1.715-1.044-2.704-0.99 c-1.012,0.055-1.912,0.474-2.739,1.035c-0.326,0.221-0.582,0.508-0.689,0.896c-0.099,0.359-0.054,0.837,0.151,1.156 c0.207,0.32,1.209,0.736,1.37,0.732c1.586,0.977,4.08,0.901,5.149-0.777c0.196-0.307,0.264-0.809,0.151-1.156 C21.687,19.103,21.636,18.984,21.586,18.864z"/><path fill="#231f20" d="M6.912,10.122c-0.03-0.038,0.071,0.134,0.063,0.116c0.011,0.025,0.041,0.134,0.057,0.195 c0.003,0.018,0.007,0.035,0.01,0.053c-0.003-0.034-0.003-0.034,0,0.002c0.004,0.036,0.006,0.073,0.007,0.11 c0.003,0.083-0.001,0.167-0.008,0.25c-0.015,0.173,0.009-0.036-0.009,0.061c-0.007,0.037-0.014,0.073-0.022,0.11 c-0.018,0.082-0.041,0.162-0.067,0.242c-0.059,0.178-0.087,0.24-0.178,0.411c-0.303,0.567-0.735,0.988-1.306,1.288 c-0.239,0.125-0.311,0.459-0.179,0.684c0.142,0.242,0.444,0.305,0.684,0.179C7.4,13.07,8.796,10.933,7.62,9.415 c-0.166-0.214-0.533-0.174-0.707,0C6.702,9.626,6.747,9.908,6.912,10.122L6.912,10.122z"/><path fill="#231f20" d="M43.138,9.89c-0.553,0.786-0.75,1.776-0.578,2.717c0.165,0.902,0.711,1.678,1.437,2.218 c0.217,0.161,0.558,0.035,0.684-0.179c0.149-0.255,0.038-0.522-0.179-0.684c-0.517-0.385-0.869-0.989-0.977-1.621 c-0.118-0.688,0.081-1.383,0.477-1.946c0.156-0.221,0.04-0.556-0.179-0.684C43.573,9.565,43.294,9.669,43.138,9.89L43.138,9.89z"/><path fill="#231f20" d="M27.416,15.654c1.899-1.525,4.578-1.843,6.813-0.923c0.252,0.104,0.547-0.112,0.615-0.349 c0.082-0.286-0.101-0.513-0.349-0.615c-2.584-1.064-5.622-0.558-7.786,1.18C26.207,15.349,26.919,16.053,27.416,15.654 L27.416,15.654z"/><path fill="#231f20" d="M15.367,14.691c1.222-0.604,2.565-0.961,3.928-1.015c0.683-0.027,1.339,0.039,1.961,0.343 c0.59,0.289,1.116,0.693,1.63,1.097c0.5,0.394,1.213-0.309,0.707-0.707c-0.599-0.471-1.202-0.955-1.895-1.283 c-0.717-0.34-1.466-0.474-2.257-0.455c-1.594,0.038-3.153,0.452-4.579,1.157C14.285,14.113,14.791,14.975,15.367,14.691 L15.367,14.691z"/><path fill="#231f20" d="M36.194,31.177c-0.014,0.001-0.028-0.001-0.042-0.001c-0.015-0.004-0.029-0.008-0.044-0.012	c-0.025-0.013-0.049-0.028-0.072-0.044c-0.082-0.071-0.156-0.15-0.224-0.234c-0.203-0.272-0.39-0.559-0.583-0.838	c-0.075-0.109-0.168-0.194-0.299-0.23c-0.12-0.033-0.279-0.018-0.385,0.05c-0.214,0.138-0.338,0.454-0.179,0.684	c0.149,0.217,0.305,0.431,0.457,0.647c-2.611,2.233-6.007,3.382-9.435,3.315c-1.849-0.036-3.678-0.413-5.404-1.072	c-0.884-0.338-1.735-0.763-2.566-1.213c-0.741-0.401-1.471-0.851-1.975-1.541c0.06-0.116,0.135-0.225,0.192-0.343	c0.059-0.123,0.088-0.25,0.05-0.385c-0.032-0.116-0.122-0.242-0.23-0.299c-0.223-0.118-0.563-0.072-0.684,0.179	c-0.232,0.484-0.494,0.952-0.786,1.403c-0.142,0.22-0.052,0.562,0.179,0.684c0.249,0.131,0.532,0.056,0.684-0.179	c0.028-0.043,0.048-0.091,0.075-0.135c1.107,1.227,2.781,1.963,4.267,2.582c1.892,0.789,3.92,1.243,5.97,1.312	c3.753,0.128,7.457-1.131,10.319-3.562c0.21,0.147,0.451,0.247,0.714,0.232c0.133-0.008,0.258-0.051,0.354-0.146	c0.087-0.087,0.152-0.229,0.146-0.354C36.682,31.419,36.474,31.161,36.194,31.177z"/><path fill="#231f20" d="M21.511,40.201c2.354-1.369,5.153-0.975,7.663-0.315c0.623,0.164,0.889-0.801,0.266-0.964 c-2.775-0.729-5.841-1.092-8.433,0.416C20.45,39.66,20.953,40.525,21.511,40.201L21.511,40.201z"/><path fill="#231f20" d="M31.806,24.663c-0.615-0.389-1.244-0.36-1.929-0.488c-0.462-0.086-0.823-0.396-1.204-0.675	c-0.037-0.061-0.088-0.119-0.16-0.166c-1.118-0.731-2.458-0.905-3.769-0.864c-1.252,0.039-2.52,0.186-3.432,1.129	c-0.238,0.246-0.441,0.544-0.728,0.739c-0.286,0.195-0.641,0.257-0.972,0.331c-0.576,0.129-1.172,0.265-1.616,0.682	c-0.846,0.794-0.565,2.081,0.284,2.755c1.115,0.886,2.556,0.461,3.843,0.681c0.692,0.119,1.197,0.552,1.81,0.854	c0.602,0.297,1.276,0.448,1.948,0.426c0.606-0.02,1.184-0.172,1.728-0.436c0.629-0.305,1.209-0.812,1.929-0.873	c0.649-0.055,1.285,0.198,1.934,0.032c0.554-0.142,1.014-0.549,1.277-1.05C33.337,26.619,32.839,25.317,31.806,24.663z M31.92,27.141c-0.45,1.156-1.77,0.502-2.687,0.649c-1.022,0.164-1.775,0.974-2.772,1.203c-1.214,0.279-2.04-0.285-3.059-0.812	c-0.92-0.475-1.871-0.43-2.877-0.452c-0.552-0.012-1.187-0.051-1.633-0.415c-0.471-0.384-0.592-1.032-0.011-1.374	c0.815-0.478,1.788-0.331,2.539-0.995c0.429-0.379,0.721-0.88,1.256-1.132c0.54-0.255,1.164-0.296,1.75-0.328	c1.037-0.057,2.089-0.004,3.031,0.418c0.056,0.065,0.125,0.122,0.225,0.154c0.47,0.149,0.794,0.542,1.201,0.799	c0.384,0.243,0.808,0.303,1.252,0.348C31.096,25.302,32.386,25.944,31.92,27.141z"/><path fill="#231f20" d="M11.867,15.173c-0.114,0.226-0.21,0.463-0.278,0.706c-0.021,0.066-0.024,0.133-0.009,0.199 c0.003,0.067,0.023,0.129,0.059,0.186c0.031,0.058,0.074,0.105,0.129,0.14c0.048,0.044,0.105,0.074,0.17,0.089 c0.128,0.029,0.272,0.023,0.385-0.05c0.11-0.071,0.194-0.171,0.23-0.299c0.037-0.133,0.083-0.263,0.136-0.39 c-0.017,0.04-0.034,0.08-0.05,0.119c0.028-0.067,0.059-0.132,0.092-0.197c0.037-0.057,0.056-0.119,0.059-0.186 c0.015-0.066,0.012-0.133-0.009-0.199c-0.015-0.065-0.045-0.122-0.089-0.17c-0.035-0.054-0.082-0.097-0.14-0.129 c-0.116-0.061-0.257-0.092-0.385-0.05C12.046,14.982,11.925,15.057,11.867,15.173L11.867,15.173z"/><path fill="#231f20" d="M37.676,15.318c0.078,0.247,0.177,0.488,0.29,0.72c0.031,0.058,0.074,0.105,0.129,0.14 c0.048,0.044,0.105,0.074,0.17,0.089c0.066,0.021,0.133,0.024,0.199,0.009c0.067-0.003,0.129-0.023,0.186-0.059 c0.107-0.069,0.201-0.171,0.23-0.299c0.006-0.044,0.012-0.089,0.018-0.133c0-0.09-0.023-0.174-0.068-0.252 c-0.035-0.071-0.068-0.144-0.099-0.217c0.017,0.04,0.034,0.08,0.05,0.119c-0.053-0.126-0.1-0.254-0.141-0.384 c-0.039-0.123-0.117-0.233-0.23-0.299c-0.057-0.037-0.119-0.056-0.186-0.059c-0.066-0.015-0.133-0.012-0.199,0.009 c-0.121,0.039-0.238,0.114-0.299,0.23C37.664,15.049,37.635,15.188,37.676,15.318L37.676,15.318z"/><path fill="#231f20" d="M17.955,18.214c0.013,0.329,0.018,0.659,0.016,0.989c-0.001,0.128,0.056,0.264,0.146,0.354 c0.087,0.087,0.229,0.152,0.354,0.146c0.273-0.012,0.498-0.22,0.5-0.5c0.003-0.33-0.003-0.659-0.016-0.989 c-0.005-0.131-0.052-0.259-0.146-0.354c-0.087-0.087-0.229-0.152-0.354-0.146c-0.129,0.006-0.263,0.048-0.354,0.146 C18.014,17.956,17.95,18.08,17.955,18.214L17.955,18.214z"/><path fill="#231f20" d="M30.803,18.373c0.027,0.361,0.054,0.723,0.081,1.084c0.01,0.134,0.049,0.256,0.146,0.354 c0.087,0.087,0.229,0.152,0.354,0.146c0.129-0.006,0.263-0.048,0.354-0.146c0.086-0.094,0.156-0.222,0.146-0.354 c-0.027-0.361-0.054-0.723-0.081-1.084c-0.01-0.134-0.049-0.256-0.146-0.354c-0.087-0.087-0.229-0.152-0.354-0.146 c-0.129,0.006-0.263,0.048-0.354,0.146C30.863,18.113,30.793,18.241,30.803,18.373L30.803,18.373z"/><path fill="#df4bb1" d="M5.992,27.532c-0.349,2.419-0.179,4.87,0.593,7.196c0.17,0.512,0.69,0.847,1.23,0.698 c0.501-0.138,0.869-0.715,0.698-1.23c-0.658-1.983-0.884-4.113-0.593-6.133c0.074-0.515-0.127-1.1-0.698-1.23 C6.749,26.726,6.072,26.979,5.992,27.532L5.992,27.532z"/><path fill="#df4bb1" d="M2.92,30.293c-0.005,0.962,0.129,1.935,0.395,2.86c0.07,0.244,0.24,0.469,0.46,0.598 c0.214,0.125,0.53,0.179,0.771,0.101c0.511-0.165,0.853-0.692,0.698-1.23c-0.124-0.429-0.216-0.866-0.277-1.308 c0.012,0.089,0.024,0.177,0.036,0.266c-0.057-0.426-0.084-0.855-0.082-1.285c0.003-0.523-0.462-1.024-1-1 C3.376,29.317,2.923,29.732,2.92,30.293L2.92,30.293z"/><path fill="#ff9600" d="M43.519,28.246c0.384,1.891,0.16,4.04-0.641,5.811c-0.223,0.492-0.141,1.076,0.359,1.368 c0.429,0.251,1.144,0.136,1.368-0.359c1.05-2.32,1.35-4.853,0.842-7.352c-0.108-0.529-0.735-0.835-1.23-0.698 C43.666,27.167,43.411,27.715,43.519,28.246L43.519,28.246z"/><g><path fill="#ff9600" d="M42.128,39.064c1.287,0,1.289-2,0-2C40.841,37.064,40.839,39.064,42.128,39.064L42.128,39.064z"/></g></svg>